<svg xmlns="http://www.w3.org/2000/svg" xmlns:xlink="http://www.w3.org/1999/xlink" width="38" height="38" viewBox="0 0 38 38">
    <defs>
        <path id="a" d="M27 17.95c-.039-1.589-.002-2.477-.82-3.734-2.88-1.033-1.621-2.282-1.621-2.322-.779-.794-1.684-1.29-2.424-1.529-1.985-.675-5.215.159-5.215.159h-3.93s-.04-.437-.468-1.112c-.428-.675-1.284-.317-1.284-.317l.35 1.35s-5.604.04-9.885-.358c-4.281-.397-7.473.755-8.718 1.033-1.246.278-1.323.794-1.674 2.66C-8.96 15.33-9 17.354-9 17.95c0 .595 0 2.62.272 4.169.312 1.866.429 2.382 1.674 2.66 1.245.318 4.437 1.47 8.718 1.073 4.28-.398 9.885-.318 9.885-.318l-.35 1.35s.856.397 1.284-.278c.428-.675.467-1.112.467-1.112h3.931s3.191.874 5.215.159c.74-.238 1.573-.743 2.351-1.457-.194-.278-.794-1.323 1.619-2.196C27 20.46 27 17.95 27 17.95zm-14.517-6.552s-1.167 1.588-6.577 1.548c-5.41 0-7.2-1.588-7.2-1.588l13.777.04zm-14.36 10.8c-.468-.04-1.752-.158-2.647-.357-.895-.199-1.752-2.303-1.79-3.891v-.398c.038-1.588.895-3.653 1.79-3.851.934-.199 2.218-.318 2.685-.358.467-.04 1.284.04 1.284 1.112v6.632c0 1.111-.856 1.151-1.323 1.111zm.544 2.343s1.79-1.588 7.2-1.548c5.41 0 6.577 1.588 6.577 1.588l-13.777-.04zm19.226-6.591c0 3.653-1.401 5.162-2.257 5.638-.857.516-3.153-.159-3.892-.357-.7-.159-.973-.993-.973-1.708v-7.227c0-.714.233-1.548.973-1.707.7-.159 2.997-.834 3.892-.318s2.257 2.025 2.257 5.679h-.117.117z"/>
    </defs>
    <g fill="none" fill-rule="evenodd" transform="rotate(230 19 19)">
        <path fill="#282E34" d="M35.444 12.371c.569.55 1.153 1.338 1.916 2.882.763 1.544.068 7.171-.283 7.98-.351.81-.947 1.74-1.401 2.199-.455.458-8.748.972-8.748.972l-5.624-.698-14.828.037L2 24.827l.092-11.684s9.222-1.188 11.3-1.142c2.078.047 13.536-.392 13.536-.392S30.955 11.65 33 12c.496.085 2.444.371 2.444.371z"/>
        <g transform="translate(10 1)">
            <use fill="#FFB200" xlink:href="#a"/>
            <path stroke="#282E34" d="M16.816 25.994h-3.473a4.25 4.25 0 0 1-.438.88 1.301 1.301 0 0 1-.84.593 1.707 1.707 0 0 1-.843-.045c-.101-.03-.18-.06-.233-.084l-.379-.176.294-1.133a120.18 120.18 0 0 0-6.665.143c-.91.047-1.758.106-2.529.177-2.44.227-4.66-.001-6.896-.546a82.835 82.835 0 0 1-1.977-.536c-1.406-.313-1.68-.8-2.057-3.061a15.57 15.57 0 0 1-.163-1.262 28.383 28.383 0 0 1-.102-1.808A39.642 39.642 0 0 1-9.5 17.95c0-1.291.096-2.99.32-4.262a33.6 33.6 0 0 1 .182-.934c.292-1.366.696-1.86 1.874-2.122.149-.034 1.51-.398 2.062-.527 2.237-.523 4.413-.738 6.81-.516.773.072 1.62.132 2.532.182 1.453.08 3.01.13 4.585.155.787.013 1.492.019 2.077.02L10.645 8.8l.4-.167c.05-.02.122-.046.216-.07.277-.071.568-.09.858-.019.336.083.624.282.825.6.213.335.353.632.438.88h3.477a16.485 16.485 0 0 1 1.003-.204c.823-.141 1.649-.224 2.427-.218.76.005 1.436.096 2 .287.91.294 1.857.87 2.627 1.655l.143.146v.204c0 .19-.236.515-.2.45-.17.306-.109.57.536.964.246.15.563.297.954.437l.159.057.092.141c.299.46.504.894.639 1.343.183.612.226 1.093.252 2.278l.009.373-.5.013h.5c0 .177-.011.477-.046.86a11.14 11.14 0 0 1-.32 1.879c-.16.597-.37 1.126-.64 1.57l-.092.151-.166.06c-.944.342-1.384.696-1.48 1.001-.047.147-.003.29.1.438l.252.359-.323.296c-.814.747-1.708 1.298-2.522 1.56-.563.2-1.22.296-1.952.309a13.022 13.022 0 0 1-2.508-.227 15.33 15.33 0 0 1-.987-.212zM10.57 11.892l-9.55-.027c1.273.366 2.89.581 4.89.581 2.01.015 3.543-.193 4.66-.554zM-5.815 17.94c.037 1.47.84 3.289 1.399 3.413.685.152 1.63.266 2.58.347.552.047.781-.074.781-.613v-6.632c0-.523-.235-.657-.742-.613-.947.08-1.905.195-2.62.347-.563.125-1.362 1.912-1.398 3.363v.388zm6.776 6.108l9.559.027c-1.118-.365-2.648-.582-4.657-.582-2.007-.015-3.628.192-4.902.555z"/>
        </g>
        <path d="M38 0v38H0V0z"/>
    </g>
</svg>
