<svg xmlns="http://www.w3.org/2000/svg" xmlns:xlink="http://www.w3.org/1999/xlink" width="16" height="32" viewBox="0 0 16 32">
    <defs>
        <path id="a" d="M15.948 9.333c3.652 0 6.615 2.87 6.719 6.407v3.637c0 .633-.552 1.167-1.206 1.167-.655 0-1.206-.534-1.206-1.167V15.74c0-.901-.517-1.603-1-2.27v15.729c0 .834-.337 1.468-1.198 1.468-.862 0-1.25-.626-1.25-1.468v-7.82h-1.43v7.82c0 .834-.488 1.468-1.35 1.468-.86 0-1.293-.668-1.293-1.468v-15.73c-.483.668-.989 1.403-.989 2.27v3.638c0 .633-.551 1.167-1.206 1.167-.654 0-1.206-.534-1.206-1.167V15.74c0-3.537 2.963-6.407 6.615-6.407zm.055-1.34a3.333 3.333 0 1 1 0-6.666 3.333 3.333 0 0 1 0 6.667z"/>
    </defs>
    <g fill="none" fill-rule="evenodd">
        <path d="M-8 0h32v32H-8z"/>
        <g fill-rule="nonzero" transform="translate(-8)">
            <use fill="#FFB000" fill-rule="evenodd" xlink:href="#a"/>
            <path stroke="#282E34" d="M19.756 19.43v9.769c0 1.168-.585 1.968-1.7 1.968-1.117 0-1.749-.809-1.749-1.968v-7.32h-.43v7.32c0 1.134-.729 1.968-1.85 1.968-1.11 0-1.793-.846-1.793-1.968v-9.633c-.099.826-.832 1.478-1.695 1.478-.927 0-1.706-.754-1.706-1.667V15.74c0-3.817 3.19-6.907 7.115-6.907 3.905 0 7.107 3.068 7.219 6.907v3.637c0 .913-.779 1.667-1.706 1.667-.91 0-1.676-.725-1.705-1.615zM16.003 8.493a3.833 3.833 0 1 1 0-7.667 3.833 3.833 0 0 1 0 7.667z"/>
        </g>
    </g>
</svg>
